<?xml version="1.0" standalone="no"?>
<!DOCTYPE svg PUBLIC "-//W3C//DTD SVG 20010904//EN">
<svg version="1.0" xmlns="http://www.w3.org/2000/svg"
 width="512.000000pt" height="512.000000pt" viewBox="0 0 512.000000 512.000000"
 preserveAspectRatio="xMidYMid meet">

<g transform="translate(0.000000,512.000000) scale(0.100000,-0.100000)"
fill="#000000" stroke="none">
<path d="M1914 5022 c-66 -23 -99 -51 -279 -231 l-150 -151 -518 0 -518 0 -24
-25 c-24 -24 -25 -28 -25 -187 l-1 -163 -119 -159 -120 -159 0 -1629 0 -1628
213 -247 c116 -136 231 -262 254 -279 23 -18 68 -43 100 -56 l58 -23 1940 -3
c1511 -2 1950 0 1985 10 89 24 170 133 170 228 0 81 -62 182 -130 210 l-30 12
0 419 c0 413 0 418 21 424 37 12 92 69 115 120 40 85 28 174 -34 245 -34 40
-97 80 -127 80 -23 0 -19 13 24 82 174 277 272 863 231 1373 -38 470 -155 837
-320 1004 -79 80 -136 106 -230 106 -63 0 -84 -5 -129 -29 -217 -113 -378
-524 -421 -1075 -40 -518 52 -1083 223 -1366 23 -38 44 -73 45 -77 2 -5 -276
-8 -617 -8 l-621 0 0 1053 0 1054 -120 159 -119 159 -1 163 c0 159 -1 163 -25
187 -23 24 -29 25 -162 25 l-138 0 0 88 c0 102 -22 156 -86 221 -81 81 -210
111 -315 73z m186 -172 c55 -39 73 -109 46 -175 l-15 -35 -208 0 -208 0 105
106 c58 58 119 112 135 120 40 19 106 12 145 -16z m380 -450 l0 -80 -960 0
-960 0 0 80 0 80 960 0 960 0 0 -80z m1976 -176 c135 -64 264 -384 321 -794
12 -93 17 -194 17 -390 0 -287 -12 -415 -60 -630 -69 -307 -195 -541 -305
-565 -166 -37 -336 299 -406 805 -12 93 -17 194 -17 390 0 196 5 297 17 390
57 409 185 727 319 793 42 21 71 21 114 1z m-1876 -144 l61 -80 -1121 0 -1121
0 61 80 61 80 999 0 999 0 61 -80z m140 -306 l0 -67 -137 -171 c-200 -251
-353 -396 -548 -521 -104 -66 -295 -153 -430 -196 -252 -79 -311 -101 -430
-159 -281 -136 -482 -301 -718 -590 -61 -74 -116 -142 -124 -150 -11 -12 -13
145 -13 953 l0 967 1200 0 1200 0 0 -66z m-134 -954 c-163 -204 -233 -280
-346 -374 -183 -153 -401 -273 -631 -345 -319 -101 -440 -152 -606 -254 -207
-129 -362 -271 -561 -515 l-117 -143 -3 231 -2 231 176 215 c216 264 271 323
388 418 195 158 392 263 626 336 224 69 280 90 415 155 282 136 514 323 715
577 l75 95 3 -230 2 -229 -134 -168z m134 -535 l0 -445 -336 0 c-235 0 -349
-4 -378 -12 -86 -26 -166 -136 -166 -228 0 -81 62 -182 130 -210 l30 -12 0
-289 0 -289 -840 0 -840 0 0 66 0 66 132 161 c72 89 170 206 216 260 218 254
511 445 842 547 224 69 280 90 415 155 283 137 517 326 715 578 41 53 76 96
78 97 1 0 2 -200 2 -445z m1975 -630 c33 -32 33 -78 0 -110 l-24 -25 -1311 0
-1311 0 -24 25 c-16 15 -25 36 -25 55 0 19 9 40 25 55 l24 25 1311 0 1311 0
24 -25z m-135 -375 l0 -79 -602 -3 -603 -3 -50 -25 c-64 -31 -124 -91 -155
-155 -23 -47 -25 -62 -28 -252 l-4 -203 -479 0 -479 0 0 400 0 400 1200 0
1200 0 0 -80z m0 -480 l0 -240 -640 0 -640 0 0 174 c0 181 6 214 43 255 47 51
42 50 660 51 l577 0 0 -240z m-2560 -210 c0 -36 -4 -50 -14 -50 -8 0 -37 -20
-64 -45 -63 -57 -88 -120 -78 -201 l6 -54 -502 0 c-306 0 -517 4 -539 10 -63
18 -113 61 -240 210 -68 80 -130 153 -138 163 -13 16 26 17 778 17 l791 0 0
-50z m2695 -215 c33 -32 33 -78 0 -110 l-24 -25 -1311 0 -1311 0 -24 25 c-16
15 -25 36 -25 55 0 19 9 40 25 55 l24 25 1311 0 1311 0 24 -25z"/>
</g>
</svg>
