<?xml version="1.0" standalone="no"?>
<!DOCTYPE svg PUBLIC "-//W3C//DTD SVG 20010904//EN">
<svg version="1.0" xmlns="http://www.w3.org/2000/svg"
 width="512.000000pt" height="512.000000pt" viewBox="0 0 512.000000 512.000000"
 preserveAspectRatio="xMidYMid meet">

<g transform="translate(0.000000,512.000000) scale(0.100000,-0.100000)"
fill="#000000" stroke="none">
<path d="M1475 4979 c-32 -9 -925 -893 -951 -941 -17 -32 -18 -105 -3 -145 15
-41 306 -332 354 -354 84 -39 139 -19 253 94 l82 82 92 -92 92 -92 -22 -62
c-20 -57 -21 -64 -7 -86 28 -42 75 -27 100 34 10 23 12 22 82 -49 l72 -73 -22
-62 c-21 -61 -21 -62 -2 -83 29 -32 65 -23 90 22 l21 37 71 -72 71 -72 -18
-45 c-26 -62 -25 -86 5 -106 33 -22 64 -10 81 32 l15 35 74 -67 c41 -37 75
-69 75 -70 0 -2 -9 -26 -20 -54 -25 -63 -25 -82 0 -105 29 -26 67 -13 85 32
l15 36 28 -24 c15 -13 48 -43 74 -68 l47 -44 -20 -51 c-32 -85 -20 -121 38
-114 21 2 33 12 47 41 14 29 22 37 35 31 67 -28 94 -27 258 14 165 40 196 55
231 107 23 33 92 299 92 352 0 61 -28 103 -155 232 l-126 128 21 47 c25 59 25
78 1 100 -29 27 -62 16 -86 -26 l-21 -37 -71 72 -71 72 18 45 c26 62 25 86 -5
106 -33 22 -64 10 -82 -33 l-15 -36 -72 72 -73 73 18 49 c25 65 24 85 -5 104
-31 21 -59 8 -82 -37 l-16 -31 -71 71 -70 70 22 60 c18 47 20 65 12 80 -24 45
-79 36 -101 -18 -7 -16 -15 -30 -19 -30 -4 0 -37 31 -75 69 -83 84 -83 93 5
178 89 84 116 155 89 230 -16 41 -317 341 -365 364 -43 20 -73 22 -120 8z
m233 -252 c113 -114 152 -160 152 -178 0 -17 -25 -49 -88 -112 -88 -87 -88
-88 -100 -63 -16 36 -265 289 -306 311 l-36 20 87 87 c65 65 94 88 113 88 20
0 61 -35 178 -153z m-400 -131 c44 -23 270 -258 277 -289 4 -15 2 -40 -4 -56
-17 -40 -320 -338 -353 -346 -15 -4 -36 -4 -48 0 -31 10 -275 250 -290 285 -7
16 -10 40 -7 52 4 13 84 101 180 196 181 180 191 186 245 158z m-353 -622 c83
-83 159 -156 170 -162 19 -11 14 -18 -66 -97 -66 -65 -93 -85 -114 -85 -21 0
-55 28 -162 133 -161 158 -177 178 -168 215 4 15 42 60 88 104 71 67 83 75 92
60 6 -9 78 -85 160 -168z m828 -261 l-117 -302 -70 66 c-39 37 -72 70 -74 74
-1 3 50 142 114 308 l118 302 73 -73 73 -73 -117 -302z m-156 409 c-3 -4 -46
-113 -96 -242 -51 -128 -94 -236 -97 -239 -2 -3 -38 29 -79 69 l-75 75 172
172 c160 160 187 186 175 165z m484 -381 c-61 -161 -215 -557 -218 -560 -5 -7
-143 132 -143 144 0 5 52 142 115 304 63 162 115 297 115 300 0 3 33 -28 74
-68 l75 -74 -18 -46z m173 -120 l69 -70 -112 -293 c-62 -161 -116 -296 -120
-300 -4 -4 -39 25 -77 65 l-71 72 116 297 c64 164 118 298 121 298 3 0 37 -31
74 -69z m230 -230 l68 -69 -105 -273 c-58 -151 -111 -287 -117 -303 l-11 -30
-69 69 c-39 38 -70 76 -70 83 0 20 222 592 229 592 4 0 37 -31 75 -69z m264
-255 c78 -80 102 -111 102 -132 0 -25 -53 -265 -66 -299 -10 -24 -38 -35 -168
-66 -134 -32 -174 -35 -198 -16 -15 11 -4 44 100 315 64 166 120 302 123 302
3 0 52 -47 107 -104z"/>
<path d="M3062 4199 c-23 -12 -52 -35 -65 -53 -21 -30 -22 -40 -25 -281 -3
-247 -3 -251 20 -284 46 -68 65 -75 211 -81 l132 -5 3 -131 3 -131 -60 -26
c-68 -29 -82 -54 -56 -94 14 -21 23 -24 48 -20 18 3 40 8 50 12 15 7 17 -2 17
-94 l0 -102 -54 -24 c-67 -30 -84 -56 -61 -92 14 -20 23 -24 48 -21 18 3 40 8
50 13 16 7 17 -2 17 -97 l0 -104 -56 -23 c-57 -24 -76 -48 -66 -84 8 -31 43
-41 85 -23 l37 15 0 -103 0 -102 -59 -29 c-66 -31 -80 -55 -55 -93 13 -20 22
-23 47 -19 18 3 40 8 50 12 15 7 17 -2 17 -94 l0 -102 -54 -24 c-67 -30 -84
-56 -61 -92 14 -20 23 -24 48 -21 18 3 40 8 50 13 14 6 17 2 17 -22 0 -63 -1
-63 401 -63 299 0 369 3 385 14 17 13 19 31 24 226 l5 211 55 27 c61 30 75 59
44 94 -18 19 -46 21 -86 3 -17 -7 -18 2 -18 96 l0 104 55 24 c60 25 76 52 55
90 -12 23 -43 27 -84 11 l-26 -10 0 103 0 102 58 30 c59 31 76 61 52 91 -14
16 -63 19 -91 4 -18 -10 -19 -6 -19 92 l0 103 58 30 c63 33 77 62 46 97 -18
19 -42 20 -86 3 -16 -7 -18 2 -18 94 0 121 0 121 122 121 100 0 147 12 189 47
55 47 59 69 59 321 0 220 -1 231 -23 272 -16 30 -37 51 -67 67 l-43 23 -641 0
c-632 0 -642 0 -684 -21z m1330 -106 c16 -15 18 -35 18 -232 0 -119 -4 -221
-8 -227 -21 -33 -50 -34 -667 -34 l-616 0 -25 25 -25 25 3 216 c3 200 4 217
22 230 17 12 122 14 650 14 572 0 631 -2 648 -17z m-472 -602 c-18 -11 -470
-211 -476 -211 -7 0 -4 206 3 213 3 4 115 7 247 7 145 0 235 -4 226 -9z m118
-173 l-3 -102 -290 -128 c-159 -70 -293 -128 -297 -128 -5 0 -7 46 -6 101 l3
102 290 128 c160 70 294 128 298 128 4 1 6 -45 5 -101z m2 -321 l0 -103 -289
-127 c-159 -70 -294 -127 -300 -127 -7 0 -11 34 -11 99 l0 98 298 131 c163 72
298 132 300 132 1 0 2 -46 2 -103z m-7 -427 c-6 -5 -534 -239 -580 -257 -10
-4 -13 19 -13 96 l0 101 53 25 c28 14 162 74 297 133 l245 107 3 -99 c1 -55
-1 -102 -5 -106z m5 -222 l-3 -102 -290 -128 c-159 -70 -293 -128 -297 -128
-5 0 -7 46 -6 101 l3 102 290 128 c160 70 294 128 298 128 4 1 6 -45 5 -101z
m2 -363 l0 -145 -300 0 c-282 0 -323 4 -287 27 16 11 570 261 580 262 4 1 7
-64 7 -144z"/>
<path d="M470 3315 c-105 -29 -200 -84 -281 -165 -328 -326 -210 -864 226
-1037 65 -26 80 -28 215 -28 135 0 150 2 215 28 298 118 464 417 400 722 -19
93 -82 217 -145 287 -63 70 -177 148 -261 178 -84 29 -285 38 -369 15z m334
-119 c363 -131 464 -589 190 -862 -326 -325 -884 -91 -884 371 0 252 172 460
425 515 67 15 194 4 269 -24z"/>
<path d="M603 3095 c-13 -9 -37 -59 -64 -130 -48 -131 -39 -122 -184 -175
-101 -38 -125 -53 -125 -85 0 -32 24 -47 125 -85 145 -53 136 -44 185 -175 49
-132 72 -159 114 -132 16 11 36 51 66 132 49 130 38 120 185 175 102 38 125
54 125 85 0 31 -23 47 -125 85 -147 55 -136 45 -184 175 -38 102 -65 145 -91
145 -3 0 -15 -7 -27 -15z m51 -257 c25 -71 36 -82 109 -108 l62 -23 -45 -18
c-86 -35 -94 -42 -120 -107 -14 -34 -27 -62 -30 -62 -3 0 -16 29 -28 64 l-23
65 -70 27 c-38 15 -69 28 -69 29 0 2 27 13 59 25 70 26 82 38 107 108 10 28
21 52 24 52 3 0 14 -24 24 -52z"/>
<path d="M1786 2548 c-9 -12 -16 -28 -16 -35 0 -17 -10 -16 -34 2 -11 8 -29
15 -40 15 -32 0 -546 -517 -546 -549 0 -18 39 -63 145 -171 l145 -146 -21 -52
c-26 -62 -20 -99 16 -108 37 -9 54 1 71 42 l16 37 73 -73 73 -73 -19 -44 c-26
-61 -24 -89 7 -110 32 -20 52 -11 74 35 8 17 17 32 20 32 3 0 37 -31 75 -70
l69 -70 -17 -47 c-23 -63 -22 -89 4 -107 29 -20 60 -7 79 32 8 17 17 32 20 32
3 0 36 -31 74 -69 l69 -70 -22 -59 c-18 -47 -20 -65 -12 -80 24 -45 79 -36
101 18 7 16 15 30 19 30 4 0 37 -31 75 -69 81 -82 81 -85 -5 -178 -33 -34 -64
-75 -69 -89 -16 -42 -11 -96 13 -138 19 -34 48 -54 207 -144 249 -140 262
-145 319 -137 45 6 56 17 404 363 197 196 365 369 373 384 8 15 14 48 14 74 0
41 -14 72 -116 255 -119 216 -149 253 -209 265 -69 13 -101 -2 -191 -89 l-85
-81 -92 92 -91 91 21 58 c24 68 17 99 -23 109 -22 6 -32 2 -51 -20 -13 -15
-23 -34 -23 -42 0 -25 -14 -16 -84 55 l-69 70 22 58 c24 65 21 90 -16 104 -32
12 -62 -4 -75 -42 -5 -16 -13 -29 -17 -29 -3 0 -37 31 -75 69 l-69 69 22 56
c25 59 22 90 -10 107 -31 16 -59 1 -78 -42 l-17 -38 -72 72 -73 73 23 62 c21
60 21 62 3 82 -32 35 -76 25 -94 -23 -6 -15 -14 -27 -19 -27 -4 0 -38 31 -75
68 l-68 68 22 57 c18 47 20 62 11 82 -15 33 -64 35 -86 3z m-76 -170 c0 -14
-220 -580 -229 -590 -4 -4 -51 37 -106 92 l-100 100 209 209 c116 116 213 208
218 205 4 -3 8 -10 8 -16z m230 -227 c0 -16 -218 -581 -229 -593 -4 -4 -39 25
-78 65 l-70 72 118 300 c65 165 119 302 119 305 0 12 140 -136 140 -149z m120
-517 c-61 -159 -115 -294 -119 -301 -4 -9 -29 10 -78 60 l-71 72 116 302 117
302 74 -73 73 -73 -112 -289z m223 -242 l-117 -303 -73 73 -73 73 115 294 c64
161 118 297 120 301 3 5 36 -24 75 -64 l69 -72 -116 -302z m233 -220 c-63
-162 -117 -297 -121 -300 -3 -3 -37 26 -76 64 l-70 71 117 302 117 303 73 -74
74 -73 -114 -293z m175 -115 c-95 -94 -171 -167 -168 -162 4 8 142 365 177
459 l11 30 77 -77 77 -77 -174 -173z m531 296 c25 -30 218 -385 218 -402 0
-22 -690 -711 -712 -711 -18 0 -370 191 -400 218 -45 39 -39 46 405 490 443
442 451 449 489 405z"/>
<path d="M4044 1540 c-22 -11 -52 -33 -66 -48 -38 -41 -294 -492 -308 -541 -9
-33 -9 -55 0 -89 12 -50 267 -501 309 -546 58 -63 74 -66 411 -66 336 0 353 3
412 66 15 16 90 139 167 273 148 258 162 293 142 369 -13 48 -265 488 -306
533 -58 65 -77 69 -415 69 -286 0 -308 -1 -346 -20z m659 -101 c28 -12 18 2
179 -276 101 -175 128 -230 128 -259 0 -29 -25 -81 -116 -238 -64 -111 -128
-220 -143 -244 -44 -72 -53 -73 -370 -70 -263 3 -281 4 -307 23 -15 12 -86
122 -162 255 -112 194 -136 242 -136 275 0 33 23 79 133 270 73 127 144 240
158 253 24 22 27 22 318 22 188 0 303 -4 318 -11z"/>
<path d="M4278 1225 c-206 -76 -288 -329 -165 -507 71 -102 173 -153 298 -146
126 7 219 67 279 180 32 58 35 70 35 153 0 80 -3 96 -30 148 -36 73 -109 140
-181 166 -64 25 -178 27 -236 6z m220 -114 c78 -40 122 -115 122 -208 0 -131
-97 -226 -231 -225 -175 1 -284 194 -195 346 61 103 196 142 304 87z"/>
</g>
</svg>
