<svg xmlns="http://www.w3.org/2000/svg" version="1.1" width="256" height="256" viewBox="0 0 256 256" xml:space="preserve">

<defs>
</defs>
<g style="stroke: none; stroke-width: 0; stroke-dasharray: none; stroke-linecap: butt; stroke-linejoin: miter; stroke-miterlimit: 10; fill: none; fill-rule: nonzero; opacity: 1;" transform="translate(1.4065934065934016 1.4065934065934016) scale(2.81 2.81)" >
	<path d="M 82.316 20.766 H 69.021 V 7.764 c 0 -2.664 -2.167 -4.831 -4.831 -4.831 H 25.811 c -2.664 0 -4.831 2.167 -4.831 4.831 v 13.002 H 7.683 C 3.447 20.766 0 24.213 0 28.449 v 34.511 c 0 4.236 3.447 7.683 7.683 7.683 h 13.296 v 11.593 c 0 2.664 2.167 4.831 4.831 4.831 h 38.379 c 2.664 0 4.831 -2.167 4.831 -4.831 V 70.643 h 13.296 c 4.236 0 7.684 -3.446 7.684 -7.683 V 28.449 C 90 24.213 86.553 20.766 82.316 20.766 z M 22.979 7.764 c 0 -1.561 1.27 -2.831 2.831 -2.831 h 38.379 c 1.562 0 2.831 1.27 2.831 2.831 v 13.002 H 22.979 V 7.764 z M 64.189 85.067 H 25.811 c -1.561 0 -2.831 -1.27 -2.831 -2.831 V 55.953 h 44.041 v 26.283 C 67.021 83.798 65.751 85.067 64.189 85.067 z M 88 62.961 c 0 3.134 -2.55 5.683 -5.684 5.683 H 69.021 v -12.69 h 7.231 c 0.553 0 1 -0.447 1 -1 s -0.447 -1 -1 -1 H 13.158 c -0.552 0 -1 0.447 -1 1 s 0.448 1 1 1 h 7.821 v 12.69 H 7.683 C 4.549 68.643 2 66.094 2 62.961 V 28.449 c 0 -3.134 2.549 -5.683 5.683 -5.683 h 74.633 c 3.134 0 5.684 2.549 5.684 5.683 V 62.961 z" style="stroke: none; stroke-width: 1; stroke-dasharray: none; stroke-linecap: butt; stroke-linejoin: miter; stroke-miterlimit: 10; fill: rgb(0,0,0); fill-rule: nonzero; opacity: 1;" transform=" matrix(1 0 0 1 0 0) " stroke-linecap="round" />
	<circle cx="74" cy="29.13" r="1.5" style="stroke: none; stroke-width: 1; stroke-dasharray: none; stroke-linecap: butt; stroke-linejoin: miter; stroke-miterlimit: 10; fill: rgb(0,0,0); fill-rule: nonzero; opacity: 1;" transform="  matrix(1 0 0 1 0 0) "/>
	<circle cx="81" cy="29.13" r="1.5" style="stroke: none; stroke-width: 1; stroke-dasharray: none; stroke-linecap: butt; stroke-linejoin: miter; stroke-miterlimit: 10; fill: rgb(0,0,0); fill-rule: nonzero; opacity: 1;" transform="  matrix(1 0 0 1 0 0) "/>
	<circle cx="67" cy="29.13" r="1.5" style="stroke: none; stroke-width: 1; stroke-dasharray: none; stroke-linecap: butt; stroke-linejoin: miter; stroke-miterlimit: 10; fill: rgb(0,0,0); fill-rule: nonzero; opacity: 1;" transform="  matrix(1 0 0 1 0 0) "/>
	<path d="M 59.705 65.953 h -30 c -0.552 0 -1 -0.447 -1 -1 s 0.448 -1 1 -1 h 30 c 0.553 0 1 0.447 1 1 S 60.258 65.953 59.705 65.953 z" style="stroke: none; stroke-width: 1; stroke-dasharray: none; stroke-linecap: butt; stroke-linejoin: miter; stroke-miterlimit: 10; fill: rgb(0,0,0); fill-rule: nonzero; opacity: 1;" transform=" matrix(1 0 0 1 0 0) " stroke-linecap="round" />
	<path d="M 59.705 75.953 h -30 c -0.552 0 -1 -0.447 -1 -1 s 0.448 -1 1 -1 h 30 c 0.553 0 1 0.447 1 1 S 60.258 75.953 59.705 75.953 z" style="stroke: none; stroke-width: 1; stroke-dasharray: none; stroke-linecap: butt; stroke-linejoin: miter; stroke-miterlimit: 10; fill: rgb(0,0,0); fill-rule: nonzero; opacity: 1;" transform=" matrix(1 0 0 1 0 0) " stroke-linecap="round" />
</g>
</svg>